<svg xmlns="http://www.w3.org/2000/svg" viewBox="0 0 500 107.7"><defs><style>.cls-1{fill:#fff;}</style></defs><title>fifa-online-4-mono-logo</title><g id="Layer_2" data-name="Layer 2"><g id="Layer_1-2" data-name="Layer 1"><path class="cls-1" d="M235.13,26.85H223.94a11.26,11.26,0,0,0-11.57,11.57V79.47h12.69V40.28a2.89,2.89,0,0,1,3-3h3a2.71,2.71,0,0,1,3,3V51.1H227.3V61.55H234V79.47H246.7v-41A11.25,11.25,0,0,0,235.13,26.85Z"/><path class="cls-1" d="M175.78,38.5v41h12.78v-21h14.28V47.9H188.56V40.38a2.91,2.91,0,0,1,3-3H208.1V26.85H187.43A11.34,11.34,0,0,0,175.78,38.5Z"/><rect class="cls-1" x="157.95" y="26.85" width="12.78" height="52.62"/><path class="cls-1" d="M121.06,38.5v41h12.78v-21h14.28V47.9H133.84V40.38a2.91,2.91,0,0,1,3-3h16.53V26.85H132.71A11.34,11.34,0,0,0,121.06,38.5Z"/><path class="cls-1" d="M271.47,79.47A11.18,11.18,0,0,1,260,68V38.34a11.18,11.18,0,0,1,11.48-11.49h11.12a11.18,11.18,0,0,1,11.49,11.49V68a11.18,11.18,0,0,1-11.49,11.49Zm7-10.38a2.87,2.87,0,0,0,3-3V40.19a2.87,2.87,0,0,0-3-3h-3a2.87,2.87,0,0,0-3,3V66.13a2.87,2.87,0,0,0,3,3Z"/><path class="cls-1" d="M298.53,79.1V38.34A11.18,11.18,0,0,1,310,26.85h11.11a11.18,11.18,0,0,1,11.49,11.49V79.1H320V40.19a2.69,2.69,0,0,0-3-3h-3a2.87,2.87,0,0,0-3,3V79.1Z"/><path class="cls-1" d="M349.67,27.22V65.76a2.87,2.87,0,0,0,3,3h16.31V79.1H348.56a11.18,11.18,0,0,1-11.49-11.49V27.22Z"/><path class="cls-1" d="M384.5,27.22V79.1H371.9V27.22Z"/><path class="cls-1" d="M389,79.1V38.34a11.18,11.18,0,0,1,11.49-11.49h11.12A11.18,11.18,0,0,1,423,38.34V79.1h-12.6V40.19a2.69,2.69,0,0,0-3-3h-3a2.87,2.87,0,0,0-3,3V79.1Z"/><path class="cls-1" d="M459.36,68.72V79.1H439a11.18,11.18,0,0,1-11.49-11.49V38.71A11.18,11.18,0,0,1,439,27.22h20.38V37.6H443.05a2.87,2.87,0,0,0-3,3V48h14.08V58.35H440.09v7.41a2.87,2.87,0,0,0,3,3Z"/><path class="cls-1" d="M498.52,27.22,479.4,55.53a4,4,0,0,0-.89,1.93c0,.52.37.89,1.11.89h7.78V53.53A11.18,11.18,0,0,1,498.89,42H500V79.1H487.4V68.72H475.17a9.27,9.27,0,0,1-9.26-9.26V58.35a18.33,18.33,0,0,1,3.33-9.27l14.6-21.86Z"/><path class="cls-1" d="M53.84,0a53.85,53.85,0,1,0,53.85,53.85A53.91,53.91,0,0,0,53.84,0Zm0,100.23a46.38,46.38,0,1,1,46.38-46.38A46.38,46.38,0,0,1,53.84,100.23Z"/><path id="EA" class="cls-1" d="M33.72,24.92H61.4l-4.24,6.72H29.49Zm20,33.66h-35l8.52-13.47H21l4.25-6.73H51.3L47,45.11H35.35L31,51.85H49.85L67.06,24.69,88.48,58.58H80.39l-4.25-6.73H63.48l4.26-6.75h4.15l-4.83-7.65Z"/><polygon class="cls-1" points="90.63 62.76 90.08 62.76 90.08 63.92 89.81 63.92 89.81 62.76 89.26 62.76 89.26 62.52 90.63 62.52 90.63 62.76"/><path class="cls-1" d="M92.52,63.92h-.26v-.87a1,1,0,0,1,0-.15.35.35,0,0,1-.07.15l-.44.69h-.05l-.45-.7-.09-.14c0,.06,0,.1,0,.15v.87H91v-1.4h.24l.55.85.55-.85h.22Z"/><path class="cls-1" d="M28.11,73.48A3.07,3.07,0,0,1,25,76.58H21.38a3,3,0,0,1-3-3V72.09h2.24l.33,1.34a1.06,1.06,0,0,0,1.15.83h2.47a1,1,0,0,0,.76-.34,1.31,1.31,0,0,0,.27-.85V71.48c0-.78-.34-1.18-1-1.18h-3.1a3.06,3.06,0,0,1-3.09-3.09v-2.1a3,3,0,0,1,.89-2.17,3.05,3.05,0,0,1,2.2-.9H25a3,3,0,0,1,2.16.86,2.93,2.93,0,0,1,.88,2.17v1.31H25.84l-.34-1.19a1.09,1.09,0,0,0-1.14-.84H21.93a.92.92,0,0,0-.75.34,1.27,1.27,0,0,0-.29.87v1.22c0,.76.34,1.15,1,1.15H25a2.94,2.94,0,0,1,2.17.91A3,3,0,0,1,28.11,71Z"/><path class="cls-1" d="M37.19,64.39h-3.5V68.9h3.5a1,1,0,0,0,.74-.34,1.25,1.25,0,0,0,.3-.86V65.58a1.25,1.25,0,0,0-.3-.86A.94.94,0,0,0,37.19,64.39Zm3.61,3.77a3,3,0,0,1-.9,2.18,3.06,3.06,0,0,1-2.21.9h-4v5.34H31.12V62h6.57a3.06,3.06,0,0,1,2.21.9,3,3,0,0,1,.9,2.16Z"/><path class="cls-1" d="M62.19,64.39H58.83v4.16h3.36a.9.9,0,0,0,.73-.33,1.25,1.25,0,0,0,.28-.85V65.58a1.29,1.29,0,0,0-.28-.86A.9.9,0,0,0,62.19,64.39Zm1.45,12.19-2.37-5.69H58.83v5.69H56.25V62h6.43a3.09,3.09,0,0,1,3.1,3.06v2.54a3.06,3.06,0,0,1-.55,1.79,3.31,3.31,0,0,1-1.41,1.14l2.55,6Z"/><polygon class="cls-1" points="77.4 64.39 73.67 64.39 73.67 76.58 71.09 76.58 71.09 64.39 67.4 64.39 67.4 62.04 77.4 62.04 77.4 64.39"/><path class="cls-1" d="M89.06,73.48a3.09,3.09,0,0,1-3.1,3.1H82.32a3,3,0,0,1-3-3V72.09h2.24l.34,1.34a1.07,1.07,0,0,0,1.15.83h2.47a.91.91,0,0,0,.75-.34,1.26,1.26,0,0,0,.28-.85V71.48c0-.78-.34-1.18-1-1.18h-3.1a2.94,2.94,0,0,1-2.19-.9,3,3,0,0,1-.91-2.19v-2.1A3.09,3.09,0,0,1,82.37,62H86a3,3,0,0,1,2.17.86A3,3,0,0,1,89,65.07v1.31H86.78l-.34-1.19a1.1,1.1,0,0,0-1.13-.84H82.87a.94.94,0,0,0-.76.34,1.32,1.32,0,0,0-.28.87v1.22c0,.76.35,1.15,1,1.15H86A3.14,3.14,0,0,1,89.06,71Z"/><path class="cls-1" d="M53.12,73.46a2.91,2.91,0,0,1-.91,2.21,3,3,0,0,1-2.19.91H46.55a3.11,3.11,0,0,1-3.12-3.12V65.1a3,3,0,0,1,.91-2.16,3,3,0,0,1,2.21-.9H50a3,3,0,0,1,2.19.89,2.89,2.89,0,0,1,.91,2.17Zm-3.6-9.07H47.06a1,1,0,0,0-.77.33,1.34,1.34,0,0,0-.27.86V73a1.32,1.32,0,0,0,.27.84.93.93,0,0,0,.77.36h2.46a.9.9,0,0,0,.74-.36,1.24,1.24,0,0,0,.3-.84V65.58a1.25,1.25,0,0,0-.3-.86A.94.94,0,0,0,49.52,64.39Z"/></g></g></svg>